HIERARCHY
ROOT Hips
{
	OFFSET 0.000000 0.000000 0.000000 
	CHANNELS 6 Xposition Yposition Zposition Yrotation Zrotation Xrotation 
	JOINT Lumbar
	{
		OFFSET 0.000000 0.000000 0.000000 
		CHANNELS 3 Zrotation Xrotation Yrotation
		JOINT Neck
		{
			OFFSET 0.000000 0.445665 0.000000 
			CHANNELS 3 Zrotation Xrotation Yrotation
			End Site
			{
				OFFSET 0.000000 0.227535 0.000000 
			}
		}
		JOINT RightShoulder
		{
			OFFSET 0.019635 0.377685 0.194865 
			CHANNELS 3 Zrotation Xrotation Yrotation
			JOINT RightElbow
			{
				OFFSET 0.000000 -0.243375 0.000000 
				CHANNELS 2 Zrotation Yrotation
				JOINT RightWrist
				{
					OFFSET 0.000000 -0.264825 0.000000 
					CHANNELS 2 Zrotation Xrotation
					End Site
					{
						OFFSET 0.006600 -0.176220 0.000990 
					}
				}
			}
		}
		JOINT LeftShoulder
		{
			OFFSET 0.019635 0.377685 -0.194865 
			CHANNELS 3 Zrotation Xrotation Yrotation
			JOINT LeftElbow
			{
				OFFSET 0.000000 -0.243375 0.000000 
				CHANNELS 2 Zrotation Yrotation
				JOINT LeftWrist
				{
					OFFSET 0.000000 -0.264825 0.000000 
					CHANNELS 2 Zrotation Xrotation
					End Site
					{
						OFFSET 0.006600 -0.176220 -0.000990 
					}
				}
			}
		}
	}
	JOINT RightHip
	{
		OFFSET 0.052140 -0.069960 0.075570 
		CHANNELS 3 Zrotation Xrotation Yrotation
		JOINT RightKnee
		{
			OFFSET 0.000000 -0.402270 0.000000 
			CHANNELS 1 Zrotation
			JOINT RightAnkle
			{
				OFFSET 0.000000 -0.404085 0.000000 
				CHANNELS 3 Zrotation Xrotation Yrotation
				End Site
				{
					OFFSET 0.204105 -0.089430 0.008415 
				}
			}
		}
	}
	JOINT LeftHip
	{
		OFFSET 0.052140 -0.069960 -0.075570 
		CHANNELS 3 Zrotation Xrotation Yrotation
		JOINT LeftKnee
		{
			OFFSET 0.000000 -0.402270 0.000000 
			CHANNELS 1 Zrotation
			JOINT LeftAnkle
			{
				OFFSET 0.000000 -0.404085 0.000000 
				CHANNELS 3 Zrotation Xrotation Yrotation
				End Site
				{
					OFFSET 0.204105 -0.089430 -0.008415 
				}
			}
		}
	}
}
MOTION
Frames: 23
Frame Time: 0.02
0 0.95578 -0 178.47876 0 0.63812 5.46413 1.36939 -2.26903 -34.89718 4.37769 7.38848 31.51055 -18.65547 8.94261 9.5362 83.27102 0.98682 0.51576 33.42604 -1.33288 -4.79996 6.0704 -77.21676 -4.04106 -0.48688 3.515 3.49965 13.76871 -22.80303 6.55325 -5.82835 -10.66574 2.46125 -2.74524 -3.70165 -17.73451 6.56032 5.53323 9.64839
-0.00116 0.95582 0.0003 178.64451 0 0.58059 5.50489 1.42296 -2.31185 -34.6432 4.39989 7.38556 31.24953 -18.66806 9.01899 9.51025 83.29705 0.9967 0.53326 33.18187 -1.3563 -4.7444 6.06448 -77.25075 -4.04262 -0.48215 3.36733 3.53761 13.71955 -22.67049 6.51365 -5.84053 -10.79019 2.44017 -2.7006 -3.77262 -17.78663 6.61506 5.54454 9.56578
-0.00231 0.95586 0.00059 178.80891 0 0.52406 5.54522 1.4756 -2.354 -34.39095 4.42171 7.38273 30.99058 -18.68044 9.09602 9.4845 83.32282 1.00648 0.55067 32.93978 -1.37933 -4.69081 6.05874 -77.28419 -4.04428 -0.47729 3.2213 3.57484 13.67069 -22.54031 6.47498 -5.85284 -10.9135 2.41885 -2.65697 -3.84378 -17.83787 6.6691 5.55588 9.48466
-0.00345 0.95589 0.00088 178.96914 0 0.47249 5.58409 1.52353 -2.39373 -34.14145 4.44225 7.38057 30.73563 -18.69195 9.17512 9.45883 83.34777 1.01606 0.56803 32.70207 -1.40136 -4.64198 6.05317 -77.31617 -4.04625 -0.47196 3.08151 3.60781 13.62116 -22.42018 6.44091 -5.86592 -11.03145 2.39495 -2.6188 -3.91889 -17.8832 6.71908 5.5675 9.41137
-0.00466 0.95595 0.0012 179.15105 0 0.39647 5.63057 1.5946 -2.44607 -33.87559 4.4696 7.37532 30.45763 -18.70789 9.24166 9.43214 83.37703 1.0268 0.58585 32.43951 -1.42916 -4.56475 6.04605 -77.35638 -4.04642 -0.46929 2.90998 3.66133 13.57355 -22.2491 6.38395 -5.87511 -11.17541 2.38302 -2.55396 -3.97604 -17.95635 6.78847 5.57767 9.29981
-0.00571 0.95596 0.00145 179.28719 0 0.371 5.66099 1.61789 -2.47182 -33.64579 4.48253 7.3763 30.22989 -18.71459 9.3358 9.40805 83.39714 1.03504 0.60253 32.23083 -1.44441 -4.54984 6.04266 -77.37881 -4.05051 -0.46087 2.80487 3.6727 13.52305 -22.18443 6.37448 -5.89239 -11.26581 2.34694 -2.54407 -4.06912 -17.97299 6.81817 5.59085 9.26709
-0.00627 0.95586 0.00153 179.29355 0 0.50041 5.64515 1.49427 -2.42112 -33.4982 4.45402 7.39708 30.12478 -18.69327 9.50413 9.38844 83.39163 1.03661 0.61728 32.15703 -1.42551 -4.69708 6.04758 -77.3547 -4.06544 -0.43627 2.89489 3.55149 13.45245 -22.43588 6.50941 -5.93442 -11.19101 2.23049 -2.70455 -4.28541 -17.80722 6.72256 5.61349 9.47885
-0.00665 0.95572 0.00155 179.25422 0 0.67845 5.61302 1.32479 -2.34417 -33.3871 4.41101 7.42331 30.07035 -18.66272 9.70199 9.37268 83.37693 1.03558 0.63047 32.13692 -1.39291 -4.91078 6.05763 -77.31281 -4.0846 -0.40565 3.0501 3.39023 13.38059 -22.79121 6.69024 -5.98422 -11.06462 2.09178 -2.9176 -4.53431 -17.58855 6.58934 5.63902 9.7661
-0.00711 0.9556 0.00159 179.23812 0 0.82413 5.59012 1.18615 -2.28099 -33.27418 4.37592 7.44589 30.00685 -18.6384 9.88651 9.35599 83.36666 1.0356 0.64389 32.10526 -1.36741 -5.0988 6.06537 -77.27653 -4.10151 -0.37826 3.16774 3.25809 13.31776 -23.08449 6.84134 -6.02892 -10.97374 1.9723 -3.09431 -4.75231 -17.41172 6.48387 5.66247 10.00095
-0.00756 0.95547 0.00164 179.21201 0 1.01199 5.56124 1.00625 -2.20961 -33.11106 4.33609 7.47503 29.89642 -18.60682 10.06623 9.33284 83.35537 1.03628 0.66021 32.03242 -1.34201 -5.26137 6.06897 -77.24794 -4.11875 -0.34977 3.31815 3.08124 13.22131 -23.43927 7.02888 -6.08019 -10.83443 1.81542 -3.32222 -5.03603 -17.16196 6.33481 5.68903 10.30978
-0.008 0.95536 0.00166 179.19541 0 1.12494 5.53877 0.90022 -2.14962 -33.04599 4.30158 7.48976 29.88073 -18.58648 10.26856 9.32784 83.34396 1.03486 0.669 32.04173 -1.3084 -5.50068 6.08753 -77.20253 -4.13763 -0.32089 3.41675 2.98627 13.19199 -23.69202 7.15264 -6.11969 -10.78059 1.72984 -3.45764 -5.19329 -17.04877 6.26587 5.70994 10.48541
-0.00845 0.95527 0.0016 179.22034 0 1.00714 5.55696 1.01966 -2.12145 -33.37226 4.29504 7.48012 30.24189 -18.61496 10.47651 9.34195 83.3335 1.0298 0.66516 32.40381 -1.29627 -5.86459 6.10463 -77.08752 -4.14997 -0.30212 3.3477 3.14232 13.37062 -23.62542 7.07868 -6.1242 -11.00226 1.85769 -3.31051 -4.97036 -17.34911 6.4422 5.71348 10.24951
-0.00889 0.95519 0.0015 179.25558 0 0.8144 5.57878 1.21321 -2.10587 -33.77163 4.29276 7.45217 30.67217 -18.65277 10.71427 9.38136 83.32242 1.02278 0.65109 32.82013 -1.26879 -6.31445 6.14584 -76.96251 -4.16644 -0.28075 3.2257 3.37939 13.61278 -23.45458 6.94078 -6.11658 -11.30667 2.05589 -3.07105 -4.62318 -17.78425 6.69771 5.71144 9.88164
-0.00932 0.95511 0.00142 179.28352 0 0.66396 5.58625 1.36598 -2.08965 -34.05271 4.2819 7.42226 30.98791 -18.67536 10.9724 9.42696 83.31348 1.01524 0.63819 33.1212 -1.2215 -6.77439 6.20139 -76.85857 -4.18669 -0.25491 3.1338 3.56938 13.81116 -23.33979 6.83907 -6.11507 -11.55558 2.21469 -2.88338 -4.34819 -18.14236 6.90721 5.71269 9.59087
-0.00981 0.95503 0.00136 179.32119 0 0.48087 5.64609 1.54674 -2.0548 -34.69467 4.29774 7.43799 31.65897 -18.74151 11.09323 9.39171 83.30041 1.01216 0.64508 33.80913 -1.28656 -7.03844 6.1443 -76.67935 -4.1802 -0.2551 3.01936 3.80106 14.07212 -23.19305 6.70926 -6.11185 -11.87835 2.40442 -2.65649 -4.00865 -18.56549 7.15761 5.71095 9.23066
-0.01018 0.95496 0.00123 179.34126 0 0.34679 5.59881 1.68791 -2.05739 -34.60126 4.26022 7.35168 31.60243 -18.72239 11.50065 9.53875 83.29084 1.0011 0.60189 33.70035 -1.11446 -7.71845 6.33504 -76.6609 -4.23412 -0.19756 2.93761 3.96596 14.21823 -23.08541 6.62169 -6.10854 -12.06746 2.5463 -2.48814 -3.77276 -18.88553 7.34227 5.71399 8.98246
-0.01019 0.95493 0.00087 179.31384 0 0.37108 5.24743 1.69739 -2.20184 -32.46524 4.06521 7.01137 29.54502 -18.43934 12.74071 10.12316 83.33812 0.95318 0.48296 31.40236 -0.28802 -9.62318 7.14895 -77.02732 -4.42055 -0.00994 2.96588 3.92449 14.02891 -23.12248 6.67037 -6.11395 -11.8694 2.54291 -2.50832 -3.86046 -18.89163 7.32497 5.73213 9.07779
-0.01009 0.95493 0.00044 179.2679 0 0.44613 4.78971 1.66548 -2.3768 -29.58664 3.81802 6.56574 26.74679 -18.07553 14.25644 10.90668 83.38274 0.89982 0.3062 28.29482 0.77611 -11.92353 8.22788 -77.56093 -4.67318 0.23864 3.02734 3.81377 13.72281 -23.20004 6.76272 -6.11866 -11.53432 2.48852 -2.58946 -4.05499 -18.78927 7.23931 5.75519 9.28934
-0.01007 0.95492 5e-05 179.22831 0 0.49471 4.38552 1.65559 -2.50955 -27.04228 3.60094 6.15161 24.27246 -17.76533 15.61715 11.63142 83.39453 0.85943 0.11225 25.54333 1.729 -13.98072 9.21392 -78.06668 -4.91815 0.48115 3.06869 3.73616 13.47135 -23.25096 6.83234 -6.11954 -11.26017 2.45467 -2.6397 -4.19626 -18.7339 7.18558 5.77562 9.44642
-0.00995 0.95488 -0.00039 179.1978 0 0.55529 3.95904 1.63479 -2.75876 -24.50879 3.35748 5.80137 21.85945 -17.38224 17.11476 12.20114 83.53955 0.77603 0.08747 22.84848 2.6952 -16.31491 10.05931 -78.39563 -5.0713 0.64225 3.12913 3.65378 13.21346 -23.33242 6.91224 -6.13696 -10.99251 2.4335 -2.70057 -4.35434 -18.69133 7.13025 5.79746 9.60723
-0.00999 0.95491 -0.00074 179.14383 0 0.60363 3.55422 1.62578 -2.77705 -21.78208 3.15593 5.29901 19.13568 -17.13396 18.37943 13.16835 83.41953 0.77921 -0.28574 19.83685 3.69096 -18.1569 11.29186 -79.09913 -5.42795 0.97504 3.15879 3.56467 12.94292 -23.36207 6.98155 -6.12061 -10.68028 2.37401 -2.75457 -4.50286 -18.59657 7.06186 5.81768 9.78794
-0.01055 0.95512 -0.00083 179.03011 0 0.60843 3.23108 1.66037 -2.11064 -18.64685 3.08785 4.35259 15.7916 -17.25626 19.04338 14.94539 82.45631 1.04048 -1.7604 16.2027 4.6997 -18.61194 13.25424 -81.09099 -6.35691 1.87342 3.09192 3.46609 12.64366 -23.23212 7.01433 -6.00531 -10.25609 2.21108 -2.77879 -4.61274 -18.36657 6.96616 5.83148 10.00984
-0.01126 0.9554 -0.00083 178.89348 0 0.5991 2.93443 1.70768 -1.21793 -15.35434 3.06283 3.26576 12.15253 -17.5197 19.44287 17.15803 81.24739 1.38767 -3.55718 12.27087 5.73078 -18.54517 15.64493 -83.40425 -7.48146 2.92333 2.99381 3.36405 12.33924 -23.05043 7.03466 -5.85721 -9.79547 2.01279 -2.7938 -4.70756 -18.09028 6.86065 5.84359 10.24574
